<?xml version="1.0" encoding="UTF-8"?>
<svg width="100" height="100" viewBox="0 0 100 100" xmlns="http://www.w3.org/2000/svg">
  <defs>
    <pattern id="adire-motif" x="0" y="0" width="50" height="50" patternUnits="userSpaceOnUse">
      <!-- Organic Curves -->
      <path d="M10 25C10 15 15 10 25 10C35 10 40 15 40 25C40 35 35 40 25 40C15 40 10 35 10 25Z" 
            fill="none" stroke="currentColor" stroke-width="0.5"/>
      
      <!-- Wave Pattern -->
      <path d="M0 20C10 20 10 30 20 30C30 30 30 20 40 20C50 20 50 30 60 30" 
            fill="none" stroke="currentColor" stroke-width="0.5"/>
      
      <!-- Dots -->
      <circle cx="25" cy="25" r="2" fill="currentColor"/>
      <circle cx="15" cy="15" r="1" fill="currentColor"/>
      <circle cx="35" cy="35" r="1" fill="currentColor"/>
      <circle cx="15" cy="35" r="1" fill="currentColor"/>
      <circle cx="35" cy="15" r="1" fill="currentColor"/>
      
      <!-- Decorative Elements -->
      <path d="M20 0L20 10M30 40L30 50" stroke="currentColor" stroke-width="0.5"/>
      <path d="M0 30L10 30M40 20L50 20" stroke="currentColor" stroke-width="0.5"/>
      
      <!-- Organic Shapes -->
      <path d="M45 45C45 42 43 40 40 40C37 40 35 42 35 45C35 48 37 50 40 50C43 50 45 48 45 45Z" 
            fill="none" stroke="currentColor" stroke-width="0.5"/>
    </pattern>
  </defs>
  
  <!-- Apply Pattern -->
  <rect width="100" height="100" fill="url(#adire-motif)"/>
</svg> 